<!-- SVG placeholder for KaikeiBizPro preview -->
<svg width="400" height="300" viewBox="0 0 400 300" xmlns="http://www.w3.org/2000/svg">
  <defs>
    <linearGradient id="bizBg" x1="0%" y1="0%" x2="100%" y2="100%">
      <stop offset="0%" style="stop-color:#3b82f6;stop-opacity:1" />
      <stop offset="100%" style="stop-color:#1e40af;stop-opacity:1" />
    </linearGradient>
  </defs>
  <rect width="400" height="300" fill="url(#bizBg)"/>
  
  <!-- Chart/Graph -->
  <rect x="100" y="200" width="20" height="60" fill="#10b981"/>
  <rect x="140" y="180" width="20" height="80" fill="#10b981"/>
  <rect x="180" y="160" width="20" height="100" fill="#10b981"/>
  <rect x="220" y="190" width="20" height="70" fill="#10b981"/>
  <rect x="260" y="170" width="20" height="90" fill="#10b981"/>
  
  <!-- Calculator -->
  <rect x="150" y="80" width="100" height="120" rx="10" fill="#f3f4f6" stroke="#374151" stroke-width="2"/>
  <rect x="160" y="90" width="80" height="20" fill="#1f2937"/>
  <text x="200" y="105" text-anchor="middle" fill="white" font-family="monospace" font-size="12">123,456</text>
  
  <!-- Buttons -->
  <rect x="160" y="120" width="15" height="15" fill="#6b7280" rx="2"/>
  <rect x="180" y="120" width="15" height="15" fill="#6b7280" rx="2"/>
  <rect x="200" y="120" width="15" height="15" fill="#6b7280" rx="2"/>
  <rect x="220" y="120" width="15" height="15" fill="#6b7280" rx="2"/>
  
  <rect x="160" y="140" width="15" height="15" fill="#6b7280" rx="2"/>
  <rect x="180" y="140" width="15" height="15" fill="#6b7280" rx="2"/>
  <rect x="200" y="140" width="15" height="15" fill="#6b7280" rx="2"/>
  <rect x="220" y="140" width="15" height="15" fill="#6b7280" rx="2"/>
  
  <rect x="160" y="160" width="15" height="15" fill="#6b7280" rx="2"/>
  <rect x="180" y="160" width="15" height="15" fill="#6b7280" rx="2"/>
  <rect x="200" y="160" width="15" height="15" fill="#6b7280" rx="2"/>
  <rect x="220" y="160" width="15" height="15" fill="#6b7280" rx="2"/>
  
  <!-- Text -->
  <text x="200" y="250" text-anchor="middle" fill="white" font-family="Arial, sans-serif" font-size="20" font-weight="bold">KaikeiBizPro</text>
</svg>
